<?xml version="1.0" standalone="no"?>
<!DOCTYPE svg PUBLIC "-//W3C//DTD SVG 20010904//EN"
 "http://www.w3.org/TR/2001/REC-SVG-20010904/DTD/svg10.dtd">
<svg version="1.0" xmlns="http://www.w3.org/2000/svg"
 width="497.000000pt" height="502.000000pt" viewBox="0 0 497.000000 502.000000"
 preserveAspectRatio="xMidYMid meet">

<g transform="translate(0.000000,502.000000) scale(0.100000,-0.100000)"
fill="#000000" stroke="none">
<path d="M2225 4929 c-457 -40 -899 -219 -1240 -502 -85 -71 -271 -259 -337
-342 -305 -385 -510 -865 -552 -1298 -14 -142 -14 -146 20 -452 36 -327 145
-636 326 -923 63 -100 164 -238 192 -262 10 -7 26 -31 37 -52 28 -54 144 -174
269 -277 370 -305 690 -457 1125 -534 101 -17 162 -21 390 -21 288 -1 346 5
585 61 454 105 598 164 840 344 205 153 433 391 577 605 54 80 243 448 208
407 -31 -39 -45 -42 -45 -10 -1 23 2 27 -72 -97 -92 -157 -229 -338 -243 -325
-3 4 23 65 59 137 57 114 136 296 136 311 0 3 -22 -30 -48 -74 -26 -44 -66
-104 -90 -134 -50 -63 -267 -291 -305 -321 -25 -20 -25 -20 -20 0 6 24 -9 26
-28 4 -51 -62 -300 -224 -344 -224 -8 0 -33 -13 -57 -29 -101 -68 -255 -139
-328 -152 -25 -4 -90 -23 -145 -42 -146 -51 -198 -65 -316 -82 -134 -19 -312
-19 -454 0 -60 8 -148 19 -195 25 -108 11 -245 50 -245 69 0 8 -37 29 -90 51
-205 83 -429 197 -562 286 -62 41 -113 78 -113 82 0 4 -12 21 -28 37 -29 32
-138 169 -199 250 -193 258 -344 591 -410 903 -25 117 -27 146 -27 372 -1 252
5 306 51 470 23 82 150 359 222 487 198 349 515 652 847 809 290 137 526 188
874 187 227 0 346 -14 545 -64 520 -129 1020 -482 1252 -884 174 -301 286
-633 329 -974 7 -63 16 -116 18 -119 13 -12 29 90 33 213 12 325 -86 679 -276
993 -55 92 -208 288 -295 380 -190 199 -389 345 -641 473 -387 195 -802 275
-1230 238z"/>
<path d="M3030 2850 c-7 -12 -9 -104 -8 -257 l3 -237 33 -19 c51 -30 139 -34
190 -8 64 33 86 83 86 196 0 66 -4 98 -17 122 -43 81 -156 83 -216 6 l-22 -28
3 117 c2 91 0 119 -10 123 -23 9 -31 6 -42 -15z m201 -180 c33 -18 49 -64 49
-141 0 -88 -16 -144 -48 -170 -27 -21 -85 -25 -127 -9 l-27 10 4 108 c3 90 7
114 27 149 32 57 77 76 122 53z"/>
<path d="M2805 2819 c-32 -50 -40 -69 -28 -69 14 0 104 96 97 103 -18 18 -46
4 -69 -34z"/>
<path d="M2180 2844 c-13 -4 -15 -38 -12 -252 2 -136 5 -253 7 -259 5 -16 153
-18 204 -3 54 15 98 51 122 100 20 38 23 61 24 145 0 157 -39 231 -138 260
-46 14 -170 19 -207 9z m219 -49 c46 -39 66 -104 66 -215 0 -113 -20 -175 -66
-209 -25 -19 -45 -24 -103 -25 l-71 -1 -3 238 -2 237 74 0 c65 0 78 -3 105
-25z"/>
<path d="M797 2833 c-12 -11 -8 -472 3 -494 10 -17 22 -19 146 -19 135 0 135
0 132 23 -2 17 -9 21 -28 20 -14 -1 -64 -5 -112 -9 l-88 -7 0 117 0 116 95 0
c78 0 95 3 95 15 0 12 -17 15 -95 15 l-95 0 0 101 0 102 88 -7 c48 -4 96 -8
107 -9 14 -1 21 5 23 21 3 22 3 22 -131 22 -73 0 -137 -3 -140 -7z"/>
<path d="M3887 2794 c-4 -4 -7 -27 -7 -50 0 -39 -2 -43 -27 -46 -39 -4 -42
-28 -4 -28 l31 0 0 -155 c0 -152 1 -156 25 -180 26 -27 73 -33 93 -13 19 19
14 37 -8 31 -44 -12 -50 9 -50 168 l0 148 42 3 c59 4 63 28 4 28 l-45 0 -3 48
c-2 38 -7 48 -23 50 -12 2 -24 0 -28 -4z"/>
<path d="M1276 2700 c-35 -11 -73 -45 -94 -85 -25 -46 -22 -170 4 -220 37 -71
138 -104 218 -71 36 15 66 50 66 77 0 13 -9 8 -34 -17 -30 -30 -40 -34 -84
-34 -41 0 -55 5 -80 28 -79 74 -61 265 28 302 33 14 71 8 94 -16 18 -17 22
-69 6 -79 -15 -9 -2 -25 20 -25 21 0 50 36 50 62 0 10 -12 31 -27 48 -23 26
-37 32 -83 35 -30 3 -68 0 -84 -5z"/>
<path d="M1650 2699 c-67 -27 -100 -91 -100 -191 0 -121 53 -188 152 -195 41
-3 63 1 97 19 63 32 86 81 86 178 0 97 -23 146 -85 178 -47 23 -107 28 -150
11z m110 -24 c40 -20 62 -66 67 -140 9 -105 -27 -187 -88 -200 -79 -18 -131
50 -132 172 0 84 20 140 61 166 34 21 55 21 92 2z"/>
<path d="M2723 2700 c-70 -22 -121 -131 -107 -229 11 -76 44 -122 103 -147 72
-30 174 -4 199 50 15 33 8 33 -30 1 -36 -30 -114 -35 -154 -9 -31 21 -54 64
-54 101 l0 28 85 1 c69 0 90 4 113 21 61 45 66 125 10 166 -31 23 -115 32
-165 17z m130 -41 c44 -54 -1 -132 -85 -144 -70 -11 -83 -5 -86 37 -4 47 22
104 57 123 34 20 91 12 114 -16z"/>
<path d="M3439 2703 c0 -4 0 -73 1 -153 2 -197 23 -240 117 -240 35 0 49 6 82
38 l39 37 14 -29 c17 -39 43 -54 66 -40 22 14 30 46 9 38 -8 -3 -19 1 -23 8
-5 7 -11 87 -14 178 l-5 165 -24 0 -25 0 3 -111 c1 -62 -3 -131 -9 -154 -23
-85 -102 -128 -150 -80 -23 23 -21 7 -29 195 -6 146 -7 150 -28 153 -13 2 -23
0 -24 -5z"/>
<path d="M4626 2260 c-10 -55 -20 -100 -23 -100 -2 0 -2 28 1 63 5 57 5 59 -5
22 -59 -225 -88 -333 -94 -350 -4 -11 11 12 34 50 54 95 98 232 107 333 3 45
5 82 2 82 -2 0 -12 -45 -22 -100z"/>
<path d="M4190 1449 c-62 -88 -191 -246 -214 -261 -8 -6 -8 -8 0 -8 18 0 169
159 229 243 35 47 55 85 53 97 -2 16 -19 -1 -68 -71z"/>
<path d="M3427 900 c-36 -22 -77 -40 -91 -40 -14 0 -27 -4 -30 -9 -3 -5 -32
-19 -63 -31 -76 -30 -93 -46 -23 -21 112 39 196 75 238 103 37 25 50 38 39 38
-2 0 -33 -18 -70 -40z"/>
</g>
</svg>
